# xmcd
#
# Track frame offsets:
#	150
#	22002
#	40232
#	57107
#	73432
#	98740
#	112870
#	134685
#	149810
#	163375
#	185362
#
# Disc length: 2756 seconds
#
# Revision: 1
# Processed by: cddbd v1.5.1PL0 Copyright (c) Steve Scherf et al.
# Submitted via: CDex 1.50Beta5
#
DISCID=aa0ac20b
DTITLE=大江慎也 - PECULIAR
DYEAR=1992
DGENRE=Rock
TTITLE0=SAY HELLO!
TTITLE1=TONIGHT
TTITLE2=SILENCE
TTITLE3=PECULIAR
TTITLE4=GET HAPPY
TTITLE5=COUNTRYSIDE,THE
TTITLE6=AIR,THE
TTITLE7=I CALL YOUR NAME
TTITLE8=CRYSTAL SHIP
TTITLE9=EARLY IN THE PARK
TTITLE10=SAY HELLO!
EXTD=
EXTT0=
EXTT1=
EXTT2=
EXTT3=
EXTT4=
EXTT5=
EXTT6=
EXTT7=
EXTT8=
EXTT9=
EXTT10=
PLAYORDER=
